<?xml version="1.0" standalone="no"?>
<!DOCTYPE svg PUBLIC "-//W3C//DTD SVG 20010904//EN"
 "http://www.w3.org/TR/2001/REC-SVG-20010904/DTD/svg10.dtd">
<svg version="1.0" xmlns="http://www.w3.org/2000/svg"
 width="1395.000000pt" height="1395.000000pt" viewBox="0 0 1395.000000 1395.000000"
 preserveAspectRatio="xMidYMid meet">
<metadata>
Created by potrace 1.14, written by Peter Selinger 2001-2017
</metadata>
<g transform="translate(0.000000,1395.000000) scale(0.100000,-0.100000)"
fill="#000000" stroke="none">
<path d="M5216 13941 c-3 -5 11 -48 32 -97 116 -272 145 -405 145 -678 0 -211
-10 -261 -55 -270 -13 -3 -93 -8 -178 -11 -85 -3 -164 -7 -175 -9 -11 -2 -47
-7 -80 -10 -247 -29 -452 -74 -659 -145 -501 -172 -918 -420 -1331 -795 -154
-139 -337 -327 -443 -455 -53 -64 -99 -118 -103 -121 -3 -3 -28 -35 -56 -72
-46 -60 -82 -133 -71 -144 4 -3 99 -21 208 -38 19 -3 44 -7 55 -10 11 -2 42
-7 68 -10 27 -4 57 -9 67 -11 9 -2 35 -6 56 -9 22 -4 68 -11 104 -17 36 -6 79
-13 95 -15 17 -3 57 -10 90 -15 33 -6 71 -12 85 -14 28 -4 81 -13 120 -20 14
-3 41 -7 60 -10 19 -3 36 -8 38 -10 2 -2 -36 -50 -85 -107 -91 -106 -101 -117
-173 -203 -65 -77 -134 -157 -146 -169 -5 -6 -64 -83 -130 -171 -249 -332
-520 -765 -679 -1085 -116 -234 -213 -435 -244 -509 -32 -75 -50 -151 -36
-151 5 0 71 20 148 45 138 45 195 60 260 70 133 20 178 23 297 20 74 -2 146
-6 160 -8 14 -3 43 -8 64 -12 106 -15 208 -50 236 -80 23 -25 24 -30 23 -213
-1 -223 -7 -284 -49 -462 -56 -242 -157 -475 -315 -730 -15 -24 -26 -46 -25
-48 2 -1 45 2 97 8 139 15 168 18 349 35 25 2 72 7 105 10 33 4 76 8 95 10 19
2 63 6 98 10 56 6 62 5 63 -12 3 -89 106 -408 209 -654 101 -239 265 -530 416
-736 186 -255 313 -404 508 -598 155 -155 279 -264 362 -318 l31 -21 -81 -110
c-45 -61 -95 -131 -111 -156 -16 -25 -32 -47 -36 -50 -10 -9 -96 -165 -139
-250 -125 -253 -200 -515 -236 -825 -15 -134 -19 -373 -19 -1375 0 -1316 -14
-1166 113 -1248 324 -209 579 -351 817 -455 392 -170 732 -273 1145 -347 30
-5 71 -12 90 -14 19 -3 69 -10 110 -15 158 -22 236 -26 595 -26 320 0 471 5
575 20 14 2 50 6 80 9 30 4 66 9 80 11 14 3 41 7 60 10 32 5 108 18 177 31 94
17 259 57 413 101 293 82 706 250 965 393 17 9 57 32 90 50 77 42 370 225 413
257 63 47 60 -5 62 1063 3 1554 5 1471 -36 1710 -23 137 -89 370 -136 480 -78
184 -176 358 -312 555 -69 99 -78 119 -70 139 5 13 45 54 89 92 44 38 93 80
109 94 204 175 464 453 639 682 315 412 586 969 703 1445 l27 111 81 -30 c45
-16 98 -36 119 -44 49 -17 188 -46 195 -40 34 35 47 538 18 716 -2 14 -7 48
-11 75 -16 120 -61 323 -91 414 -18 53 -22 49 94 91 161 58 385 77 534 44 35
-8 74 -17 87 -20 l24 -5 -6 113 c-8 134 -11 155 -38 273 -67 282 -204 604
-358 840 -14 22 -29 42 -33 43 -5 2 -8 8 -8 13 0 27 -203 267 -294 347 -36 31
-37 34 -22 51 32 35 172 129 266 179 116 62 262 121 393 157 85 24 97 30 97
50 0 53 -225 470 -364 674 -159 233 -442 551 -621 697 -33 27 -62 52 -65 55
-3 3 -36 29 -75 57 -38 28 -76 57 -83 63 -37 31 -271 170 -373 220 -143 71
-429 185 -459 182 -3 0 -16 4 -30 9 -40 16 -215 57 -309 73 -178 30 -161 23
-155 64 2 20 7 47 9 61 3 14 7 41 10 60 6 35 38 146 80 275 19 60 107 224 190
355 41 64 65 107 65 115 0 7 -172 0 -230 -9 -14 -2 -47 -7 -75 -11 -27 -3 -88
-15 -135 -26 -47 -11 -96 -23 -110 -25 -58 -12 -297 -97 -407 -146 -189 -84
-303 -153 -505 -304 -61 -46 -121 -84 -132 -84 -21 0 -34 10 -191 155 -250
229 -486 387 -847 563 -189 93 -323 146 -497 196 -122 36 -301 79 -371 91 -19
3 -46 7 -60 10 -14 3 -41 7 -60 10 -19 3 -42 8 -50 10 -8 2 -44 7 -80 10 -36
4 -74 10 -85 13 -34 9 -914 12 -919 3z m4173 -5072 c14 -42 135 -244 217 -365
233 -342 522 -639 809 -834 28 -18 52 -36 55 -40 7 -8 201 -129 282 -176 42
-24 68 -46 68 -56 0 -32 -78 -321 -118 -438 -112 -326 -274 -646 -460 -907
-37 -53 -74 -105 -82 -117 -16 -23 -153 -196 -191 -241 -83 -98 -308 -330
-389 -400 -253 -221 -477 -385 -526 -385 -22 0 -17 -16 19 -57 17 -21 79 -92
137 -159 124 -143 121 -139 186 -234 47 -69 164 -265 164 -275 0 -3 15 -37 34
-77 105 -227 156 -419 182 -686 7 -76 12 -2216 5 -2279 -5 -51 -66 -102 -219
-185 -43 -22 -126 -69 -187 -103 -151 -84 -271 -145 -390 -195 -55 -23 -109
-46 -120 -51 -11 -5 -50 -20 -87 -34 -242 -89 -493 -157 -783 -210 -58 -11
-321 -44 -410 -52 -49 -4 -214 -8 -365 -8 -280 0 -406 7 -580 30 -19 3 -57 7
-85 10 -27 3 -57 8 -65 10 -8 3 -31 7 -50 9 -244 32 -714 164 -945 266 -11 5
-65 28 -120 51 -195 83 -671 344 -725 397 -41 42 -40 18 -39 1136 1 1196 1
1193 65 1516 25 125 110 348 191 500 40 75 167 276 182 290 4 3 25 30 47 60
23 30 84 99 135 154 126 133 145 160 132 189 -6 12 -67 62 -136 109 -69 48
-136 96 -149 106 -432 361 -718 688 -970 1112 -83 138 -218 409 -258 515 -12
33 -26 69 -31 80 -29 67 -128 404 -129 436 0 7 59 23 119 34 19 3 100 21 180
41 743 176 1402 419 2021 744 85 45 210 111 278 146 68 36 160 88 205 116 111
70 205 120 217 116 6 -2 -7 -39 -29 -83 -96 -196 -241 -505 -241 -513 0 -9
433 -7 525 2 39 4 95 9 125 12 30 3 84 10 120 15 36 6 80 12 99 15 147 19 485
105 651 166 30 11 60 21 65 22 6 1 15 4 20 7 6 4 28 12 50 19 22 7 58 21 80
31 22 9 74 32 115 50 185 79 383 190 610 343 111 75 268 192 290 216 26 29
164 120 182 120 3 0 11 -14 17 -31z"/>
<path d="M5569 7655 c-3 -2 -16 -6 -29 -8 -137 -26 -296 -142 -355 -260 -33
-66 -32 -100 1 -126 40 -31 71 -27 113 17 20 21 60 64 90 95 169 177 411 156
572 -48 55 -70 85 -89 124 -79 82 20 60 136 -47 246 -103 106 -227 160 -374
165 -50 1 -93 1 -95 -2z"/>
<path d="M8423 7640 c-141 -42 -273 -143 -327 -252 -30 -61 -33 -99 -8 -120
45 -40 97 -27 145 36 78 101 174 166 274 185 111 22 249 -31 328 -124 85 -101
112 -125 143 -125 33 0 72 38 72 70 0 23 -55 129 -83 161 -42 47 -135 117
-184 139 -115 51 -250 63 -360 30z"/>
</g>
</svg>
