<svg xmlns="http://www.w3.org/2000/svg" width="10.7917in" height="14.5278in" viewBox="0 0 777 1046">
  <path fill="black" stroke="black" stroke-width="1" d="M 257.00,1.00
           C 257.00,1.00 273.00,0.00 273.00,0.00
             273.00,0.00 306.00,0.00 306.00,0.00
             306.00,0.00 318.00,0.91 318.00,0.91
             347.37,3.06 384.49,11.43 411.00,24.26
             433.45,35.12 451.58,45.54 471.00,61.46
             471.00,61.46 487.00,76.00 487.00,76.00
             488.65,77.63 491.55,80.93 494.00,80.96
             496.34,80.99 501.91,75.95 504.00,74.37
             511.95,68.37 520.18,62.46 529.00,57.78
             553.96,44.53 584.56,35.09 613.00,35.00
             613.00,35.00 595.43,65.00 595.43,65.00
             595.43,65.00 588.26,88.00 588.26,88.00
             588.26,88.00 586.00,103.00 586.00,103.00
             586.00,103.00 606.00,106.42 606.00,106.42
             621.01,109.73 635.96,114.61 650.00,120.86
             692.87,139.95 726.60,172.23 752.33,211.00
             758.89,220.89 773.93,247.24 777.00,258.00
             777.00,258.00 765.00,261.34 765.00,261.34
             747.91,266.80 731.34,274.78 718.00,287.00
             726.59,293.15 737.85,307.13 743.98,316.00
             761.79,341.80 776.71,379.31 777.00,411.00
             768.67,409.83 766.26,408.04 757.00,408.00
             741.48,407.93 734.29,410.29 720.00,416.00
             729.46,444.40 733.30,480.45 728.00,510.00
             719.58,509.59 706.10,504.22 698.00,501.00
             689.89,544.11 662.46,597.06 633.84,630.00
             620.48,645.38 612.40,654.27 597.00,667.95
             597.00,667.95 585.00,678.20 585.00,678.20
             583.57,679.37 580.77,681.41 580.16,683.17
             579.33,685.56 581.44,688.15 582.71,690.00
             582.71,690.00 593.19,705.00 593.19,705.00
             605.87,725.66 612.69,741.40 618.12,765.00
             623.86,789.96 622.00,818.32 622.00,844.00
             622.00,844.00 622.00,968.00 622.00,968.00
             621.98,978.71 617.74,978.84 609.00,984.67
             597.66,992.22 584.18,1000.16 572.00,1006.25
             527.56,1028.47 480.53,1041.70 431.00,1045.09
             431.00,1045.09 419.00,1046.00 419.00,1046.00
             419.00,1046.00 390.00,1046.00 390.00,1046.00
             390.00,1046.00 368.00,1044.17 368.00,1044.17
             319.86,1039.35 274.74,1024.77 232.00,1002.22
             232.00,1002.22 202.00,984.00 202.00,984.00
             192.77,977.85 189.02,978.00 189.00,967.00
             189.00,967.00 189.00,847.00 189.00,847.00
             189.00,810.79 187.33,781.24 198.74,746.00
             203.78,730.45 212.40,713.53 221.52,700.00
             221.52,700.00 236.00,680.00 236.00,680.00
             224.81,674.24 202.41,651.91 193.72,642.00
             167.49,612.09 146.70,581.42 132.58,544.00
             128.73,533.80 121.88,514.43 121.00,504.00
             121.00,504.00 61.00,510.00 61.00,510.00
             61.00,510.00 69.14,496.00 69.14,496.00
             72.80,489.72 75.77,483.70 78.58,477.00
             84.47,462.94 89.98,441.24 90.00,426.00
             90.00,426.00 90.00,410.00 90.00,410.00
             90.00,407.59 90.20,404.25 88.98,402.13
             86.23,397.35 73.29,395.55 68.00,394.61
             52.93,391.94 35.79,393.21 21.00,397.15
             21.00,397.15 0.00,404.00 0.00,404.00
             1.00,397.65 4.07,391.87 6.58,386.00
             6.58,386.00 25.14,348.00 25.14,348.00
             42.36,316.96 58.69,291.05 80.66,263.00
             80.66,263.00 114.00,224.00 114.00,224.00
             114.00,224.00 34.00,211.00 34.00,211.00
             35.62,204.42 40.70,199.14 44.92,194.00
             52.33,184.96 59.72,176.28 68.00,168.00
             105.42,130.58 140.35,106.52 191.00,90.34
             210.31,84.18 239.71,80.04 260.00,80.00
             262.55,79.99 266.46,80.33 268.40,78.40
             269.98,76.84 270.28,73.16 270.79,71.00
             270.79,71.00 270.79,51.00 270.79,51.00
             270.79,33.25 263.88,16.97 257.00,1.00 Z
           M 569.00,378.00
           C 562.37,379.80 551.33,390.45 545.00,395.12
             531.45,405.10 514.05,416.21 499.00,423.73
             466.50,439.98 427.22,451.19 391.00,454.08
             391.00,454.08 379.00,455.00 379.00,455.00
             379.00,455.00 349.00,455.00 349.00,455.00
             349.00,455.00 371.00,409.00 371.00,409.00
             364.14,410.40 351.75,419.28 345.00,423.15
             345.00,423.15 296.00,448.69 296.00,448.69
             245.24,472.00 196.76,487.99 142.00,499.00
             143.72,511.18 151.20,532.48 156.15,544.00
             171.12,578.86 191.81,608.66 218.28,635.83
             228.91,646.73 240.74,657.09 253.00,666.12
             255.67,668.08 267.11,674.89 267.80,677.18
             268.50,679.48 266.35,681.48 264.96,683.00
             264.96,683.00 251.75,697.00 251.75,697.00
             237.53,714.00 225.76,733.76 219.03,755.00
             209.51,785.04 211.00,812.10 211.00,843.00
             211.00,843.00 211.00,955.00 211.00,955.00
             211.00,957.01 210.88,960.12 211.60,961.96
             213.35,966.48 222.76,971.41 227.00,973.85
             227.00,973.85 257.00,990.22 257.00,990.22
             293.82,1007.61 329.54,1017.84 370.00,1022.16
             370.00,1022.16 393.00,1024.00 393.00,1024.00
             393.00,1024.00 423.00,1024.00 423.00,1024.00
             423.00,1024.00 433.00,1023.09 433.00,1023.09
             477.11,1020.06 523.03,1007.37 562.00,986.31
             562.00,986.31 589.00,971.31 589.00,971.31
             591.49,969.70 597.57,966.02 598.98,963.68
             600.22,961.61 600.00,958.37 600.00,956.00
             600.00,956.00 600.00,838.00 600.00,838.00
             600.00,808.73 602.15,782.26 592.31,754.00
             585.45,734.33 576.34,717.36 563.33,701.00
             563.33,701.00 544.00,679.00 544.00,679.00
             556.71,674.31 577.43,655.55 588.00,646.28
             595.56,639.65 598.48,636.13 605.09,629.00
             641.61,589.60 668.00,543.11 678.00,490.00
             638.64,467.33 615.32,448.42 588.58,411.00
             582.48,402.46 573.11,387.49 569.00,378.00 Z" />
  <path fill="black" stroke="black" stroke-width="1" d="M 284.00,472.46
           C 297.60,470.58 311.94,476.18 320.48,487.00
             322.36,489.38 325.59,493.90 325.63,497.00
             325.69,500.50 322.60,503.43 319.09,502.34
             315.85,501.34 313.13,495.80 310.68,493.17
             305.27,487.39 296.04,482.90 288.00,483.52
             279.20,484.19 272.91,488.54 267.18,495.00
             264.46,498.07 261.28,504.35 256.22,502.24
             250.33,499.79 254.72,492.31 257.04,489.00
             263.87,479.29 272.74,474.96 284.00,472.46 Z
           M 502.00,472.46
           C 515.07,470.66 527.87,475.42 536.91,485.01
             539.91,488.20 548.94,500.59 539.90,502.51
             534.74,503.61 532.78,497.53 528.70,493.09
             523.60,487.55 516.52,484.08 509.00,483.52
             500.68,482.89 492.69,487.25 487.04,493.02
             484.02,496.10 479.87,503.85 475.18,502.34
             468.39,500.26 472.79,492.50 475.18,489.00
             482.20,479.38 490.72,474.97 502.00,472.46 Z" />
</svg>